# xmcd
#
# Track frame offsets:
#	150
#	26418
#	47075
#	66243
#	86480
#	114295
#	139745
#	161463
#	184770
#	199515
#
# Disc length: 3037 seconds
#
# Revision: 1
# Processed by: cddbd v1.4PL0 Copyright (c) Steve Scherf et al.
# Submitted via: audiograbber 1.80
#
DISCID=7c0bdb0a
DTITLE=Arbess Williams - Don't You Call Me Mama
DYEAR=1900
DGENRE=
TTITLE0=TAKE YOUR DOG WITH YOU
TTITLE1=HONEY ON YOUR SUGAR CANE
TTITLE2=DON'T YOU CALL ME MAMMA
TTITLE3=THE BACK DOOR MAN
TTITLE4=DOWN HOME BLUES
TTITLE5=STEAL AWAY
TTITLE6=LITTLE RED ROOSTER
TTITLE7=YOU GOT THE DROP ON ME THIS TIME
TTITLE8=DAMN BLUE JEANS
TTITLE9=BREAKING UP SOMEBODY'S HOME
EXTD="My name is Arbess and I'm here to Mess."  And mess she will, because this
EXTD=is a woman of extraordinary power.  Her power is her music.  She is a sin
EXTD=ger of the blues.  She is a big, beutiful black woman and her name is Arbe
EXTD=ss Williams - Sacramento's Queen of the Blues.  Her shows are breathing be
EXTD=dlams of soulful emotion and infectious energy.  She struts on stage like 
EXTD=some bejeweled queen and cheerfully announces, "Ok y'all, we gonna talk so
EXTD=me shit and shake some booty."  \nArbess is gritty, frequently nasty, and 
EXTD=all the time fun.  "I like to be spontaneous on stage.  Give me a band wit
EXTD=h a good bottom and good depth and just watch me do my shit."  Her music o
EXTD=ften drips with lust and she guiltlessly plays this with her audience, as 
EXTD=in The Back Door Man.  Arbess began singing professionally about 30 years 
EXTD=ago.  She grew up in San Diego swapping melodies with such heavyweights as
EXTD=Sam and Dave, Sam Cooke, and Aretha Franklin.  She first recorded at the yo
EXTD=ung age of 15 with a song she wrote Broken Hearted Girl.  She moved to Sac
EXTD=ramento in the mid 80's and started a career as a barber.  So, is she a si
EXTD=nging barber?  "No.  I never sing while cuttin' and shavin'.  But I do sin
EXTD=g in the car.  People think I'm crazy - bellowing with the windows down." 
EXTD=So here's Arbess Williams.  She's ready, She's primed.  Get ready for som
EXTD=e high-spirited, soulful, no-holds-barred blues from Sacramento's Queen of
EXTD=the Blues.
EXTT0=
EXTT1=
EXTT2=
EXTT3=
EXTT4=
EXTT5=
EXTT6=
EXTT7=
EXTT8=
EXTT9=
PLAYORDER=
